<?xml version="1.0" encoding="UTF-8" standalone="no"?>
<svg
   height="517"
   viewBox="0 0 1692 517"
   width="1692"
   version="1.1"
   id="svg4"
   sodipodi:docname="footer-bg.svg"
   inkscape:version="1.3 (0e150ed6c4, 2023-07-21)"
   xmlns:inkscape="http://www.inkscape.org/namespaces/inkscape"
   xmlns:sodipodi="http://sodipodi.sourceforge.net/DTD/sodipodi-0.dtd"
   xmlns="http://www.w3.org/2000/svg"
   xmlns:svg="http://www.w3.org/2000/svg">
  <defs
     id="defs4" />
  <sodipodi:namedview
     id="namedview4"
     pagecolor="#ffffff"
     bordercolor="#999999"
     borderopacity="1"
     inkscape:showpageshadow="2"
     inkscape:pageopacity="0"
     inkscape:pagecheckerboard="0"
     inkscape:deskcolor="#d1d1d1"
     inkscape:zoom="0.8144208"
     inkscape:cx="846"
     inkscape:cy="258.46589"
     inkscape:window-width="1920"
     inkscape:window-height="1057"
     inkscape:window-x="1912"
     inkscape:window-y="-8"
     inkscape:window-maximized="1"
     inkscape:current-layer="g4" />
  <clipPath
     id="a">
    <path
       d="m159 5841h1692v517h-1692z"
       id="path1" />
  </clipPath>
  <linearGradient
     id="b"
     gradientUnits="objectBoundingBox"
     x1=".404"
     x2=".411"
     y1="-.343"
     y2=".819">
    <stop
       offset="0"
       stop-color="#737dfc"
       id="stop1"
       style="stop-color:#0c6707;stop-opacity:1;" />
    <stop
       offset="1"
       stop-color="#5864ff"
       id="stop2"
       style="stop-color:#00b427;stop-opacity:1;" />
  </linearGradient>
  <g
     clip-path="url(#a)"
     transform="translate(-159 -5841)"
     id="g4">
    <path
       d="m-52.41 1302c62.21-79.011 157.84-232.31 251.61-305.49 347.561-270.678 504.052 31.946 1066.283-204.393 356.452-149.838 405.56 239.187 393.783 508.735z"
       fill="#5864ff"
       transform="translate(190 5091)"
       id="path2"
       style="fill:#3d9824;fill-opacity:1" />
    <path
       d="m-113.148 1297.79c-41.4-185.711 96.459-247.977 228.027-344.267 255.548-186.624 370.256-9.856 783.643-172.8s264.57 517.071 264.57 517.071z"
       fill="#fff"
       opacity=".05"
       transform="translate(515.633 5267.644)"
       id="path3"
       style="fill:#000000;fill-opacity:1" />
    <path
       d="m1181.684 1297.789c41.4-185.71-96.459-247.977-228.027-344.266-255.548-186.623-370.257-9.856-783.643-172.804s-264.57 517.07-264.57 517.07z"
       fill="url(#b)"
       transform="translate(633.633 5267.644)"
       id="path4" />
  </g>
</svg>
